<?xml version="1.0" standalone="no"?>
<!DOCTYPE svg PUBLIC "-//W3C//DTD SVG 20010904//EN"
 "http://www.w3.org/TR/2001/REC-SVG-20010904/DTD/svg10.dtd">
<svg  version="1.0" xmlns="http://www.w3.org/2000/svg"
 width="2560.000000pt" height="2560.000000pt" viewBox="0 0 2560.000000 2560.000000"
 preserveAspectRatio="xMidYMid meet">
<metadata>
Created by potrace 1.16, written by Peter Selinger 2001-2019
</metadata>
<g transform="translate(0.000000,2560.000000) scale(0.100000,-0.100000)"
fill="currentColor" stroke="none">
<path d="M8838 17636 c-291 -508 -528 -934 -528 -947 0 -13 70 -475 156 -1026
l156 -1002 -453 -638 c-331 -466 -454 -647 -457 -671 -3 -24 75 -299 269 -946
l274 -913 1020 -812 1020 -813 59 -111 c136 -260 1249 -2343 1255 -2349 4 -4
287 -90 629 -192 l623 -184 561 186 562 187 648 1215 c357 668 655 1224 663
1236 7 11 470 384 1028 828 l1014 808 277 923 c152 507 276 930 276 940 0 9
-207 309 -459 665 l-460 648 159 1019 159 1018 -293 515 c-161 283 -398 700
-527 927 -167 294 -239 412 -252 413 -14 0 -1623 -1234 -1679 -1289 -14 -13
-34 -154 -108 -731 -50 -393 -94 -722 -98 -731 -6 -14 -106 6 -807 166 l-800
183 -744 -184 c-409 -101 -745 -183 -746 -182 -1 2 -44 334 -96 739 l-94 736
-818 644 c-450 354 -828 645 -840 646 -19 3 -88 -112 -549 -921z m1858 -5586
l573 -735 1 -358 0 -359 -277 271 -278 271 -742 457 c-453 280 -742 464 -743
473 0 15 146 681 155 708 4 10 83 12 371 10 l367 -3 573 -735z m5384 498 c114
-443 125 -487 120 -491 -3 -3 -334 -210 -736 -461 l-732 -456 -266 -272 -266
-273 0 362 0 362 542 735 541 736 367 0 367 0 63 -242z m-2876 -4274 c48 -119
86 -217 84 -219 -2 -1 -112 -62 -246 -135 l-242 -132 -236 133 c-130 72 -238
137 -240 144 -3 6 27 103 66 215 38 112 70 205 70 207 0 2 148 3 329 3 l329 0
86 -216z"/>
</g>
</svg>
